<svg width="45" height="45" viewBox="0 0 45 45" fill="none" xmlns="http://www.w3.org/2000/svg">
<circle cx="22.5" cy="22.5" r="21.5" fill="white" stroke="#66C05D" stroke-width="2"/>
<path d="M26.9993 12.0042L24.4058 12C21.4921 12 19.6091 13.9319 19.6091 16.922V19.1914H17.0014C16.7761 19.1914 16.5936 19.3741 16.5936 19.5994V22.8875C16.5936 23.1128 16.7763 23.2953 17.0014 23.2953H19.6091V31.5922C19.6091 31.8175 19.7915 32 20.0169 32H23.4192C23.6445 32 23.827 31.8173 23.827 31.5922V23.2953H26.8759C27.1013 23.2953 27.2837 23.1128 27.2837 22.8875L27.285 19.5994C27.285 19.4912 27.2419 19.3876 27.1656 19.311C27.0892 19.2345 26.9852 19.1914 26.877 19.1914H23.827V17.2676C23.827 16.343 24.0473 15.8736 25.2518 15.8736L26.9989 15.873C27.224 15.873 27.4065 15.6903 27.4065 15.4651V12.412C27.4065 12.1871 27.2242 12.0046 26.9993 12.0042Z" fill="#66C05D"/>
</svg>
